<svg width="343" height="426" viewBox="0 0 343 426" fill="none" xmlns="http://www.w3.org/2000/svg">
<g clip-path="url(#clip0_101_10)">
<g clip-path="url(#clip1_101_10)">
<path d="M336.933 263.512L130.946 334.77C127.133 390.202 72.4725 422.959 65.6914 422.744C79.3325 428.343 91.2473 435.053 304.766 364.981C363.713 345.64 336.933 263.512 336.933 263.512Z" fill="#FE6152"/>
<path d="M329.295 14.8155C320.522 4.8487 312.686 0.000732422 305.307 0.000732422C300.659 0.000732422 297.336 1.99861 296.247 2.65329C293.742 4.14323 289.979 7.82858 290.329 16.4522L264.581 37.5541C260.751 36.2673 257.073 35.6127 253.631 35.6127C242.693 35.6127 236.261 42.1538 234.264 45.8955C228.222 56.6299 230.953 70.1918 241.914 84.4817L181.195 158.324L261.366 102.92C267.718 107.124 276.005 111.092 284.592 111.092C289.55 111.14 294.407 109.689 298.526 106.927C308.76 99.9399 306.774 86.0732 304.991 79.2218L326.57 52.352C327.489 52.4705 328.488 52.5495 329.509 52.5495C334.417 52.5495 337.323 50.6024 338.868 48.977C348.73 38.6829 339.094 25.9393 329.295 14.8155Z" fill="#FE6152"/>
<path d="M82.5876 393.611C33.9017 385.372 22.2407 298.712 47.9264 135.998L223.585 96.9374L233.452 84.9276L232.149 82.9579C227.731 76.3322 224.815 69.65 223.478 63.0976L222.835 59.9146L16.1874 105.866L14.1283 117.876C6.51797 162.309 -27.5396 385.631 48.9813 418.506C49.9178 418.912 50.8487 419.245 51.7739 419.572L53.6637 420.278L54.4141 420.205C60.5464 419.606 86.074 402.788 85.7863 396.941L85.1262 394.035L82.5876 393.611ZM272.937 116.374L269.055 115.076L256.328 280.528L293.731 267.598L305.646 112.587L300.574 115.195C292.4 119.399 283.187 119.84 272.937 116.374Z" fill="#FE6152"/>
</g>
</g>
<defs>
<clipPath id="clip0_101_10">
<rect width="343" height="426" fill="white"/>
</clipPath>
<clipPath id="clip1_101_10">
<rect width="343" height="426" fill="white"/>
</clipPath>
</defs>
</svg>
